<?xml version="1.0" encoding="UTF-8" standalone="no"?>
<svg
   width="300"
   height="300"
   version="1.1"
   viewBox="0 0 79.375 79.375"
   id="svg1"
   sodipodi:docname="armbian.svg"
   inkscape:version="1.3.2 (091e20e, 2023-11-25, custom)"
   xmlns:inkscape="http://www.inkscape.org/namespaces/inkscape"
   xmlns:sodipodi="http://sodipodi.sourceforge.net/DTD/sodipodi-0.dtd"
   xmlns="http://www.w3.org/2000/svg"
   xmlns:svg="http://www.w3.org/2000/svg">
  <defs
     id="defs1" />
  <sodipodi:namedview
     id="namedview1"
     pagecolor="#505050"
     bordercolor="#ffffff"
     borderopacity="1"
     inkscape:showpageshadow="0"
     inkscape:pageopacity="0"
     inkscape:pagecheckerboard="1"
     inkscape:deskcolor="#d1d1d1"
     inkscape:zoom="1.1973675"
     inkscape:cx="155.34078"
     inkscape:cy="124.02208"
     inkscape:window-width="1920"
     inkscape:window-height="1174"
     inkscape:window-x="-11"
     inkscape:window-y="-11"
     inkscape:window-maximized="1"
     inkscape:current-layer="svg1" />
  <path
     d="m 15.646454,10.168748 c -4.03274,0 -5.477707,1.45119 -5.477707,5.477706 -0.6184468,0 -3.8554206,-0.359864 -3.3146129,0.958816 0.3435718,0.837758 2.5814261,0.461331 3.3146129,0.461331 v 1.623024 H 6.7198205 c 0.063385,1.930096 1.9732017,1.420146 3.4489265,1.420146 v 1.420146 H 6.7198205 c 0.063385,1.906073 1.9990477,1.420146 3.4489265,1.420146 v 1.420147 c -0.8049078,0 -2.4628435,-0.31506 -3.1234749,0.208356 -1.7640833,1.397672 2.6448361,1.414668 3.1234749,1.414668 V 27.41338 H 6.7198205 v 1.217268 h 3.4489265 v 1.623024 c -1.4757248,0 -3.3855445,-0.50995 -3.4489265,1.420147 1.4255437,0 3.3068555,-0.442168 3.4489265,1.420145 -1.4498778,0 -3.3855408,-0.485927 -3.4489265,1.420147 1.4255417,0 3.3068555,-0.442173 3.4489265,1.420145 -0.4786418,0 -4.8875562,0.01698 -3.1234749,1.414667 0.6606229,0.523413 2.3185761,0.208358 3.1234749,0.208358 -0.06662,2.045675 -1.8712508,1.623024 -3.4489265,1.623024 v 1.217268 h 3.4489265 v 1.623024 H 6.7198205 c 0.063385,1.930097 1.9732017,1.420146 3.4489265,1.420146 V 44.86089 H 6.7198205 c 0.063385,1.930093 1.9732017,1.420145 3.4489265,1.420145 v 1.420147 H 6.7198205 v 1.420146 h 3.4489265 v 1.623024 H 6.7198205 v 1.217268 c 1.5776737,0 3.3823105,-0.422652 3.4489265,1.623024 -1.4757248,0 -3.3855445,-0.509949 -3.4489265,1.420146 l 3.4489265,0.202879 v 1.217268 c -1.4498818,0 -3.3855408,-0.485934 -3.4489265,1.420146 h 3.4489265 v 1.623025 H 6.7198205 c 0.063385,1.930095 1.9732017,1.420145 3.4489265,1.420145 v 1.623025 H 6.7198205 c 0.1344161,1.725163 2.1358457,1.217268 3.4489265,1.217268 0,4.087304 1.390402,5.477707 5.477707,5.477707 0,0.618446 -0.359865,3.855425 0.958817,3.31461 0.837749,-0.34357 0.461328,-2.581431 0.461328,-3.31461 2.045675,0.06662 1.623025,1.871253 1.623025,3.448926 1.930097,-0.06339 1.420146,-1.973201 1.420146,-3.448926 h 1.420147 v 3.448926 c 1.930092,-0.06339 1.420143,-1.973201 1.420143,-3.448926 h 1.420148 c 0,0.804906 -0.315056,2.462849 0.208356,3.123477 1.397675,1.764083 1.414667,-2.644838 1.414667,-3.123477 h 1.420146 v 3.448926 h 1.217268 v -3.448926 h 1.623024 c 0,0.804906 -0.315054,2.462849 0.208359,3.123477 1.397675,1.764083 1.414666,-2.644838 1.414666,-3.123477 h 1.420145 v 3.448926 c 1.90608,-0.06339 1.420147,-1.999042 1.420147,-3.448926 h 1.420146 v 3.448926 c 1.930097,-0.06339 1.420146,-1.973201 1.420146,-3.448926 h 1.420147 c 0,0.643287 -0.390123,3.85072 0.953808,3.31461 0.843412,-0.336437 0.466337,-2.582286 0.466337,-3.31461 h 1.623025 c 0,0.643287 -0.390123,3.85072 0.953809,3.31461 0.843414,-0.336442 0.466336,-2.582286 0.466336,-3.31461 h 1.420147 v 3.448926 h 1.420146 v -3.448926 h 1.420146 c 0,0.478639 0.01698,4.88756 1.414666,3.123477 0.52342,-0.660633 0.208359,-2.318571 0.208359,-3.123477 h 1.420145 v 3.448926 c 1.906081,-0.06339 1.420148,-1.999042 1.420148,-3.448926 h 1.420145 c 0,0.478639 0.01698,4.88756 1.414666,3.123477 0.523417,-0.660633 0.208359,-2.318571 0.208359,-3.123477 1.862318,0.142073 1.420146,2.023387 1.420146,3.448926 1.906079,-0.06339 1.420145,-1.999042 1.420145,-3.448926 h 1.420147 v 3.448926 h 1.420146 v -3.448926 h 1.623024 v 3.448926 c 1.725169,-0.134415 1.217268,-2.135841 1.217268,-3.448926 4.087305,0 5.477706,-1.390403 5.477706,-5.477707 1.31308,0 3.314519,0.507901 3.448927,-1.217268 -1.577667,0 -3.382319,0.422651 -3.448927,-1.623025 1.475722,0 3.385558,0.50995 3.448927,-1.420145 -1.577667,0 -3.382319,0.422657 -3.448927,-1.623025 h 3.448927 c -0.06337,-1.90608 -1.999056,-1.420146 -3.448927,-1.420146 v -1.217268 l 3.448927,-0.202879 c -0.06337,-1.930099 -1.973212,-1.420146 -3.448927,-1.420146 0.06661,-2.045676 1.87126,-1.623024 3.448927,-1.623024 v -1.217268 h -3.448927 v -1.623024 h 3.448927 c -0.06337,-1.930101 -1.973212,-1.420146 -3.448927,-1.420146 v -1.420147 c 1.475715,0 3.385558,0.509955 3.448927,-1.420145 h -3.448927 v -1.420147 c 1.475715,0 3.385558,0.509951 3.448927,-1.420146 h -3.448927 v -1.623024 h 3.448927 v -1.217268 c -1.577667,0 -3.382319,0.422655 -3.448927,-1.623024 0.804901,0 2.462857,0.315055 3.123479,-0.208358 1.764074,-1.397684 -2.644838,-1.414667 -3.123479,-1.414667 0.142062,-1.862312 2.023389,-1.420145 3.448927,-1.420145 -0.06337,-1.930097 -1.973205,-1.420147 -3.448927,-1.420147 0.142068,-1.862325 2.023395,-1.420145 3.448927,-1.420145 v -1.420147 h -3.448927 v -1.623024 h 3.448927 V 27.41338 h -3.448927 v -1.420146 c 0.478641,0 4.887562,-0.017 3.123479,-1.414668 C 71.6691,24.05515 70.01115,24.37021 69.206249,24.37021 v -1.420147 c 1.475722,0 3.385558,0.509956 3.448927,-1.420146 -1.425538,0 -3.306859,0.442173 -3.448927,-1.420146 1.475722,0 3.385558,0.509943 3.448927,-1.420146 -1.577667,0 -3.382319,0.422652 -3.448927,-1.623024 0.643283,0 3.850727,0.390116 3.314618,-0.95381 -0.336449,-0.843414 -2.582293,-0.466337 -3.314618,-0.466337 0,-4.027873 -1.424207,-5.477706 -5.477706,-5.477706 V 6.7198212 c -1.72517,0.1344087 -1.217268,2.1358468 -1.217268,3.4489268 h -1.623024 c 0,-0.643282 0.390116,-3.8507265 -0.95381,-3.3146178 -0.843414,0.3364491 -0.466336,2.5822923 -0.466336,3.3146178 h -1.420147 c 0,-1.4757147 0.509951,-3.3855575 -1.420145,-3.4489268 v 3.4489268 h -1.420146 c 0,-0.795069 0.343263,-2.685026 -0.352687,-3.2394738 -1.513936,-1.2061177 -1.270338,2.6634379 -1.270338,3.2394738 h -1.420145 c 0,-0.6184413 0.359864,-3.8554314 -0.958817,-3.3146178 -0.837758,0.3435764 -0.461331,2.5814328 -0.461331,3.3146178 h -1.420145 c 0,-0.4786406 -0.01698,-4.8875612 -1.414666,-3.1234779 -0.523414,0.6606212 -0.208359,2.3185771 -0.208359,3.1234779 h -1.420146 c 0,-0.7323255 0.377084,-2.9781687 -0.466337,-3.3146178 C 44.470767,6.3180215 44.860887,9.525466 44.860887,10.168748 H 43.44074 c 0,-1.4757147 0.509955,-3.3855575 -1.420145,-3.4489268 V 10.168748 H 40.39757 c 0,-0.7323255 0.377078,-2.9781687 -0.466337,-3.3146178 -1.343929,-0.5361087 -0.953808,2.6713358 -0.953808,3.3146178 h -1.420147 c 0,-0.7323255 0.377078,-2.9781687 -0.466337,-3.3146178 -1.34393,-0.5361087 -0.953809,2.6713358 -0.953809,3.3146178 h -1.420146 c 0,-1.449878 0.485933,-3.3855521 -1.420147,-3.4489268 v 3.4489268 h -1.420145 c 0,-0.5868291 0.229513,-4.353706 -1.297889,-3.236501 -0.677058,0.4952269 -0.325136,2.48783 -0.325136,3.236501 h -1.623024 c 0,-0.6305151 0.371957,-3.3199369 -0.608634,-3.3199369 -0.980591,0 -0.608634,2.6894157 -0.608634,3.3199369 h -1.420146 c 0,-0.7950751 0.343268,-2.6850199 -0.352689,-3.2394738 C 24.12661,5.7231565 24.370208,9.5927121 24.370208,10.168748 H 22.95006 c 0,-1.449878 0.485934,-3.3855521 -1.420143,-3.4489268 V 10.168748 H 20.10977 c 0,-0.6432759 0.390118,-3.8507265 -0.953808,-3.3146178 -0.843415,0.3364491 -0.466338,2.5822923 -0.466338,3.3146178 h -1.623025 c 0,-0.6656575 0.386636,-3.5126103 -0.787247,-3.3543793 -1.019867,0.1374743 -0.632898,2.6430867 -0.632898,3.3543793 z M 41.180213,41.267374 C 41.06863,41.230157 40.716381,41.141843 40.397437,41.07113 l -0.579897,-0.128568 0.131502,-4.098896 c 0.07232,-2.254394 0.05459,-4.755412 -0.03941,-5.557821 -0.164395,-1.403369 -0.153834,-1.46321 0.27739,-1.571441 0.246562,-0.06188 0.593469,-0.168222 0.770901,-0.23631 0.28829,-0.110628 0.30856,0.137476 0.190549,2.33223 -0.0966,1.796518 -0.0692,2.456029 0.101996,2.456029 0.128732,0 0.234056,-0.143966 0.234056,-0.319922 0,-0.57386 1.12873,-1.50598 1.823634,-1.50598 0.953137,0 1.41421,0.338294 1.890099,1.386777 0.544603,1.199882 0.573079,3.774232 0.05535,5.003881 -0.758822,1.802257 -2.626096,2.919058 -4.073396,2.436265 z m 2.249096,-1.211766 c 0.917359,-0.601077 1.27056,-4.075081 0.561821,-5.525951 -0.29625,-0.606464 -0.507316,-0.783328 -0.991402,-0.830765 -1.053975,-0.103281 -1.523727,0.62686 -1.759103,2.734197 -0.224053,2.005965 -0.100302,3.700365 0.289263,3.960543 0.327443,0.218687 1.319111,0.04221 1.899421,-0.338024 z m -26.062882,0.156237 c -0.417507,-0.835012 -0.308216,-1.442483 -0.03529,-2.456052 0.370173,-1.37472 1.522987,-2.069293 3.43449,-2.069293 h 0.890284 l -0.112593,-0.839424 c -0.06193,-0.461683 -0.256377,-0.983214 -0.432118,-1.158953 -0.40121,-0.40121 -1.699135,-0.369939 -2.532505,0.06102 -0.581596,0.300754 -0.624141,0.294906 -0.844065,-0.116029 -0.274809,-0.513484 -0.09775,-0.672229 1.127528,-1.010912 1.06634,-0.294752 2.642188,-0.130568 3.148993,0.328086 0.640733,0.579855 0.799734,1.604335 0.779303,5.021315 l -0.0191,3.19261 h -0.584441 c -0.530771,0 -0.584441,-0.06411 -0.584441,-0.698099 0,-0.383955 -0.09129,-0.754524 -0.202878,-0.823486 -0.111583,-0.06896 -0.202878,-0.005 -0.202878,0.142258 0,0.147204 -0.231932,0.517773 -0.515406,0.823485 -0.41028,0.44247 -0.696261,0.555842 -1.40211,0.555842 -0.731361,0 -1.576459,-0.279714 -1.912782,-0.952362 z m 3.538327,-0.770249 c 0.412583,-0.540926 0.546813,-0.960263 0.56824,-1.775183 0.02774,-1.055193 0.02101,-1.067646 -0.610727,-1.129 -1.941321,-0.188545 -3.196949,1.664681 -2.085348,3.077848 0.621153,0.78967 1.444305,0.722487 2.127835,-0.173665 z m 3.498906,-2.487109 c -0.03427,-2.315345 -0.06232,-4.219429 -0.06232,-4.231297 0,-0.01187 0.29671,-0.07805 0.659353,-0.147087 l 0.659354,-0.125507 v 1.009318 c 0,0.555125 0.09129,1.009318 0.202877,1.009318 0.111583,0 0.202879,-0.148987 0.202879,-0.331081 0,-0.431988 1.345866,-1.6977 1.805211,-1.6977 0.280346,0 0.337156,0.129572 0.266844,0.608634 -0.0689,0.46947 -0.193709,0.608635 -0.545832,0.608635 -0.55376,0 -1.479466,0.882563 -1.682491,1.604079 -0.08143,0.289377 -0.148049,1.735721 -0.148049,3.214095 v 2.687958 l -0.647751,1.76e-4 -0.647752,1.79e-4 z m 4.603872,0.405856 c 0,-2.092234 -0.07462,-4.009476 -0.16583,-4.260538 -0.138972,-0.382547 -0.09574,-0.456475 0.266934,-0.456475 0.23802,0 0.609354,-0.09451 0.825184,-0.210016 0.35836,-0.191789 0.392419,-0.137711 0.392419,0.623079 v 0.833094 l 0.683309,-0.724518 c 0.559856,-0.59362 0.82837,-0.724518 1.48622,-0.724518 0.804895,0 1.685154,0.616191 1.685154,1.179625 0,0.358581 0.09581,0.307009 0.872375,-0.469552 0.580594,-0.580594 0.861748,-0.710073 1.541873,-0.710073 0.561296,0 0.963754,0.131954 1.237556,0.405757 0.369349,0.369349 0.405755,0.67626 0.405755,3.420611 0,1.658168 0.05805,3.438423 0.129015,3.956121 l 0.129016,0.941267 h -0.73765 -0.737648 v -3.535874 c 0,-2.943927 -0.05337,-3.589248 -0.318809,-3.854682 -0.43042,-0.430421 -1.156849,-0.401685 -1.738216,0.06876 -0.469544,0.379958 -0.47895,0.455669 -0.47895,3.85434 v 3.46677 l -0.710398,4.05e-4 -0.710398,4.06e-4 4.06e-4,-3.427032 c 2.02e-4,-3.085414 -0.0382,-3.469661 -0.386156,-3.854682 -0.518668,-0.573922 -1.162494,-0.539039 -1.759095,0.09531 -0.472969,0.502894 -0.494308,0.650783 -0.556212,3.854682 l -0.06446,3.331598 -0.645699,10e-5 -0.6457,1.01e-4 z m 18.325629,0.06717 c 0.04224,-2.369394 -0.01197,-3.883911 -0.148075,-4.138236 -0.181841,-0.339775 -0.140607,-0.419727 0.269582,-0.522677 0.266345,-0.06684 0.606863,-0.168588 0.756709,-0.22609 0.222805,-0.0855 0.272444,0.690612 0.272444,4.259574 v 4.36412 l -0.608633,2.03e-4 -0.608634,2.03e-4 z m 3.274722,3.222941 c -0.377934,-0.402294 -0.498031,-0.787412 -0.553573,-1.775183 -0.120646,-2.145559 0.931912,-3.188774 3.217342,-3.188774 h 1.04762 L 54.20668,34.847073 c -0.06193,-0.461683 -0.247854,-0.974689 -0.413177,-1.140012 -0.386172,-0.386172 -1.754467,-0.370062 -2.527637,0.02976 -0.568897,0.294187 -0.604976,0.28653 -0.814259,-0.172796 -0.202031,-0.443409 -0.156777,-0.505515 0.584463,-0.8021 0.441899,-0.176813 1.302287,-0.321477 1.911973,-0.321477 0.937838,0 1.210539,0.09109 1.771077,0.591548 l 0.662555,0.591548 0.06327,3.770329 0.06326,3.770331 h -0.621181 c -0.594535,0 -0.621455,-0.03698 -0.627631,-0.862233 -0.006,-0.813135 -0.02387,-0.839127 -0.312483,-0.456475 -0.894374,1.185825 -1.093634,1.318708 -1.977456,1.318708 -0.678199,0 -0.989154,-0.117331 -1.361571,-0.51375 z m 2.91757,-1.110238 c 0.515886,-0.613099 0.891752,-2.152265 0.667983,-2.735398 -0.140273,-0.365548 -1.01965,-0.400074 -1.94792,-0.07648 -0.447874,0.156131 -0.751738,0.448144 -0.943225,0.906436 -0.369579,0.884527 -0.357419,1.070955 0.121038,1.855684 0.540911,0.887157 1.380768,0.907034 2.102124,0.04976 z m 3.479245,-2.533068 v -4.156815 l 0.588189,-0.204942 c 0.323505,-0.11272 0.620214,-0.204942 0.659354,-0.204942 0.03914,0 0.07116,0.337374 0.07116,0.74972 v 0.749717 l 0.686717,-0.749713 c 0.599351,-0.654338 0.804394,-0.74972 1.611712,-0.74972 0.685055,0 1.072496,0.126877 1.493633,0.489123 l 0.568641,0.489125 0.07318,3.872752 0.07318,3.872755 h -0.688879 -0.68888 l 0.07727,-3.195329 c 0.04801,-1.985328 -0.0054,-3.407977 -0.140869,-3.75688 -0.434299,-1.118023 -1.870112,-1.126033 -2.598621,-0.01451 -0.313293,0.478017 -0.365646,1.016674 -0.365646,3.762214 v 3.204321 l -0.710073,-3.7e-5 -0.710074,-3.5e-5 z m -9.738144,-5.986845 c -0.20983,-0.661121 0.07272,-1.217268 0.618441,-1.217268 0.353779,0 0.525166,0.141476 0.617617,0.509831 0.233674,0.931029 -0.950065,1.608522 -1.236058,0.707437 z"
     id="path1"
     sodipodi:nodetypes="ccsccccccccsccccccccccsccccccccccccccccccccccccccccccscccccccsccccccsccccccccsccsccccccscccccsccccccccccccccccccccccccccccccccccccscccccccccccsccccccscccccscccccsccsccsccscccccsccscccccsccsccscccccsccscsscsssssssssssssssssssscssssssscsssssssssssscssscssssssssccccssssscsssssssscccssssccccsscccccssssscccsssscssssssscccsssssssssscccssscssscccccsssscccssss"
     style="fill:#000000;fill-opacity:1;stroke:none;stroke-width:0.264583" />
</svg>
