<?xml version="1.0" encoding="UTF-8" standalone="no"?>
<svg
   width="300"
   height="300"
   version="1.1"
   viewBox="0 0 79.375 79.375"
   id="svg1"
   sodipodi:docname="armbian-tux.svg"
   inkscape:version="1.3.2 (091e20e, 2023-11-25, custom)"
   xmlns:inkscape="http://www.inkscape.org/namespaces/inkscape"
   xmlns:sodipodi="http://sodipodi.sourceforge.net/DTD/sodipodi-0.dtd"
   xmlns="http://www.w3.org/2000/svg"
   xmlns:svg="http://www.w3.org/2000/svg">
  <defs
     id="defs1" />
  <sodipodi:namedview
     id="namedview1"
     pagecolor="#505050"
     bordercolor="#ffffff"
     borderopacity="1"
     inkscape:showpageshadow="0"
     inkscape:pageopacity="0"
     inkscape:pagecheckerboard="1"
     inkscape:deskcolor="#d1d1d1"
     inkscape:zoom="2.0069512"
     inkscape:cx="140.26251"
     inkscape:cy="163.18284"
     inkscape:window-width="1920"
     inkscape:window-height="1174"
     inkscape:window-x="-11"
     inkscape:window-y="-11"
     inkscape:window-maximized="1"
     inkscape:current-layer="svg1" />
  <g
     id="armbian"
     transform="matrix(0.83552148,0,0,0.83552148,-2.0888205,-2.0888038)"
     style="stroke-width:1.19686">
    <path
       d="m 50.51,2.5 -0.8557,0.007 -19.908,8.398 -0.68641,0.68641 -4.6191,17.972 0.70057,-0.84153 8.6067,-11.68 2.2275,0.0122 14.154,2.4029 12.32,-1.8351 3.871,-0.58906 8.9738,11.949 h 0.30821 l -4.6852,-17.909 -0.16222,-0.0629 z m -8.5097,21.729 -1.1974,0.16932 -1.1964,0.16931 -0.17844,1.2694 -0.17945,1.2684 0.92768,0.67828 0.92671,0.67727 h 0.76546 l 0.8162,-0.81514 0.81514,-0.8162 v -1.3555 l -0.75025,-0.62252 z m 16.497,0 -1.5005,1.245 v 1.3545 l 1.6313,1.6313 h 1.3566 l 0.62251,-0.74926 0.62252,-0.75025 -0.16932,-1.1964 -0.17033,-1.1974 -1.1964,-0.16932 z m -34.374,7.7824 -4.6334,18.513 -3.0902,2.8591 -2.2974,1.6202 -3.9155,12.132 0.84962,1.9892 0.84864,1.9902 1.2481,-0.93883 4.9314,-3.944 0.0426,-1.6922 1.463,-1.7094 11.991,21.695 6.4888,-37.404 z m 51.782,0.0973 -13.841,15.042 6.2677,37.376 12.215,-21.875 1.3677,1.4275 v 2.119 l 5.9697,4.7856 0.64379,0.0466 1.2856,-4.5918 -3.8356,-11.513 -2.2548,-1.5512 -2.5214,-2.0278 -4.5999,-18.471 z m -26.243,1.2146 v 0.007 l -4.9294,2.848 -4.7388,2.849 4.4794,6.2038 5.2643,7.3729 -0.075,-19.274 0.0779,19.272 3.3641,-4.9751 5.4505,-7.7641 -0.006,-1.2815 -2.848,-1.606 -2.9849,-1.7003 z m 10.757,46.411 -3.4574,4.7885 h 6.846 z m -20.811,0.15715 -1.7033,2.3156 -1.7043,2.3156 h 7.3333 l -3.4067,-4.6314 z m -7.4471,5.1576 -1.0879,3.3742 -0.34168,2.2061 -0.33966,2.199 h -0.0841 l 4.5847,4.6719 9.3874,-0.0396 5.1911,-4.6112 H 49.1973 l 0.0142,-0.0142 -0.0131,-0.38934 -0.0122,-0.38933 -0.511,-2.336 -0.50998,-2.336 -0.53124,-2.336 z m 20.308,0 -0.77461,3.8934 -0.77357,3.8862 v 0.001 l -8.2e-4,0.006 h 0.008 l 2.5428,2.337 2.2295,2.2883 9.3874,0.0396 4.5777,-4.6648 h 0.37918 l -0.51505,-1.8168 -1.2775,-5.9697 z m -22.077,7.7792 9.4088,0.007 c 0.002,9.9e-4 9.3947,0.0131 9.3967,0.0142 z m 20.528,0.007 18.745,1e-5 -9.5739,0.004 z"
       id="path1"
       style="stroke-width:1.19686" />
  </g>
</svg>
