<?xml version="1.0" encoding="UTF-8" standalone="no"?>
<svg
   width="300"
   height="300"
   version="1.1"
   viewBox="0 0 79.375 79.375"
   id="svg1"
   sodipodi:docname="tearran.svg"
   inkscape:version="1.3.2 (091e20e, 2023-11-25, custom)"
   xmlns:inkscape="http://www.inkscape.org/namespaces/inkscape"
   xmlns:sodipodi="http://sodipodi.sourceforge.net/DTD/sodipodi-0.dtd"
   xmlns="http://www.w3.org/2000/svg"
   xmlns:svg="http://www.w3.org/2000/svg">
  <defs
     id="defs1" />
  <sodipodi:namedview
     id="namedview1"
     pagecolor="#505050"
     bordercolor="#ffffff"
     borderopacity="1"
     inkscape:showpageshadow="0"
     inkscape:pageopacity="0"
     inkscape:pagecheckerboard="1"
     inkscape:deskcolor="#d1d1d1"
     inkscape:zoom="1.6933333"
     inkscape:cx="150"
     inkscape:cy="149.70472"
     inkscape:window-width="1920"
     inkscape:window-height="1174"
     inkscape:window-x="-11"
     inkscape:window-y="-11"
     inkscape:window-maximized="1"
     inkscape:current-layer="svg1" />
  <g
     id="g1"
     transform="matrix(1.1162022,0,0,1.1162022,-4.6119305,-4.6113019)"
     style="stroke-width:0.895895">
    <path
       id="a"
       d="m 33.63,5.8208 c -7.1226,0.0057 -10.979,1.3377 -14.895,5.1399 -2.1546,2.0921 -3.45,3.7814 -4.484,5.8515 -1.1142,2.2306 -1.4855,5.1315 -1.7713,7.7731 -0.31746,2.9347 -0.49872,5.9584 0.0752,8.8538 0.61636,3.1101 1.7389,6.2237 3.5524,8.8246 2.0465,2.935 5.9203,4.2628 7.9584,7.2036 4.3034,6.2094 -0.19089,15.482 0.35928,15.847 5.4051,-3.9552 6.4588,-10.273 5.6537,-14.155 -0.29652,-1.4298 5.5568,1.3422 2.735,5.2861 2.8219,-3.9439 1.5166,-8.4761 -1.3772,-11.519 0,0 7.8019,2.5558 4.9004,8.4528 1.9474,-3.0305 2.8894,-4.3171 2.2002,-7.8275 -1.6177,-2.9535 -4.6465,-5.1152 -9.3913,-6.2066 -3.7608,-0.86505 -7.4543,-3.3292 -9.5905,-6.5603 -1.4626,-2.2123 -1.9846,-5.1845 -1.561,-7.8024 0.65708,-4.0617 2.565,-7.8097 6.1147,-10.723 3.534,-2.4288 6.3561,-3.8931 9.9302,-4.0843 5.5034,-0.29449 10.732,1.0662 15.875,4.6218 1.7053,1.1789 3.3204,2.862 4.2904,4.4728 0.80774,1.3413 1.6772,3.9811 2.2239,6.7483 0.34829,1.7637 0.39221,3.9586 0.11279,5.6593 -0.24442,1.4882 -0.22955,2.2694 0.0599,3.0928 0.28168,0.80145 1.2745,2.5345 2.689,4.697 1.1268,1.7228 1.2589,2.1285 0.93022,2.8575 -0.25154,0.5578 -0.72347,0.96156 -1.5499,1.3271 -0.80422,0.35572 -0.93362,0.72497 -0.67121,1.9189 0.23157,1.0539 0.14894,1.3996 -0.54588,2.2768 -0.38166,0.48188 -0.38143,0.48326 -0.18521,0.97339 0.35433,0.88553 0.2389,1.3056 -0.70462,2.5553 -0.48933,0.6479 -0.49749,0.67371 -0.58626,2.0192 -0.0797,1.207 -0.13591,1.4532 -0.49853,2.1584 -0.25697,0.49974 -0.62977,0.98176 -0.99985,1.2937 -0.52591,0.44334 -0.67137,0.50213 -1.3508,0.5431 -0.41896,0.0256 -1.1493,-0.0402 -1.6223,-0.14483 -3.9035,-0.86275 -4.57,-0.97139 -6.02,-0.98453 -1.2071,-0.009 -1.6316,0.0376 -2.345,0.2618 -1.0289,0.32366 -2.5032,1.2541 -3.5273,2.2253 -0.81929,0.77693 -4.92,5.4948 -5.4866,6.3124 -0.42153,0.60819 -1.8092,4.074 -2.2698,5.669 -0.33527,1.1608 -0.39402,1.9415 -0.1866,2.4871 l 0.12811,0.33699 0.74223,-0.72829 c 0.40874,-0.40047 1.9789,-2.0722 3.7362,-3.9841 1.7573,-1.9118 3.031,-3.2481 3.9868,-4.0829 0.95591,-0.83481 1.7053,-1.2886 2.7475,-1.7978 1.4575,-0.71207 1.9923,-0.78912 4.4561,-0.63361 3.2242,0.20366 4.8706,0.48543 7.5406,1.2909 0.4126,0.12459 1.1783,0.2139 1.9677,0.22699 1.2612,0.0199 1.3069,0.0103 1.9036,-0.37181 0.33634,-0.2159 0.85334,-0.62963 1.1475,-0.92047 0.96302,-0.95243 1.237,-1.7444 1.3549,-3.9033 l 0.0863,-1.5805 0.74362,-0.90097 c 0.40871,-0.49559 0.80764,-1.0221 0.88565,-1.1697 0.21493,-0.40655 0.16471,-1.265 -0.10861,-1.8674 l -0.2437,-0.53891 0.46094,-0.54866 c 1.1093,-1.3165 1.1804,-1.5586 0.83135,-2.8589 -0.21331,-0.79447 -0.23598,-1.518 -0.0571,-1.8521 0.0702,-0.13113 0.55895,-0.45485 1.0862,-0.71994 1.536,-0.77227 2.0925,-1.3663 2.1264,-2.2684 0.0199,-0.52836 -0.45717,-1.3811 -1.9328,-3.4521 -1.217,-1.7081 -2.0354,-2.9964 -2.8589,-4.4993 -0.51007,-0.9295 -0.51422,-0.94607 -0.51385,-2.2114 2.1e-4,-0.70115 0.0955,-1.7717 0.21028,-2.3799 0.25295,-1.3383 0.28294,-4.8776 0.0515,-6.0826 -0.28907,-1.5064 -1.1073,-4.6066 -1.5555,-5.896 -0.91853,-2.6428 -2.0009,-4.2862 -4.2473,-6.4503 -2.0374,-1.9627 -4.0366,-3.2653 -6.7692,-4.4102 -4.417,-1.8506 -10.993,-3.1471 -15.947,-3.1416 z m 3.402,9.9817 v 0.0029 c -0.87885,-0.0021 -1.7628,0.04706 -2.1891,0.15039 -2.1967,0.53334 -4.0259,1.5722 -5.4295,3.0831 -2.6149,2.8147 -3.4753,6.7062 -2.2893,10.356 0.22883,0.70427 0.28891,0.7732 0.74919,0.86059 0.30888,0.05861 0.30758,0.12049 0.0071,-0.72134 -0.2839,-0.7947 -0.48177,-1.6725 -0.53891,-2.391 l -0.0529,-0.67399 h 4.0008 l 0.09609,1.1488 c 0.10888,1.2994 0.38639,2.8646 0.5236,2.9494 0.07159,0.04449 0.52614,0.0078 0.60715,-0.04877 0.0091,-0.005 -0.07458,-0.45117 -0.18521,-0.98871 -0.11063,-0.53752 -0.22477,-1.4433 -0.25344,-2.0122 l -0.05155,-1.0347 2.2378,-0.02923 c 1.2812,-0.01733 2.3072,0.0021 2.4007,0.04592 0.0898,0.04178 -0.003,2.5595 -0.003,2.5595 l 0.65589,-0.12672 0.0265,-2.2058 0.0251,-0.25762 h 2.2768 c 1.2523,0 2.2906,0.02738 2.3074,0.06124 0.0168,0.03387 0.007,0.4281 -0.0222,0.8773 -0.0294,0.44923 -0.0438,0.83146 -0.0307,0.84806 l -0.12951,0.51384 c -0.34698,0.17578 -0.68445,0.35743 -0.66981,0.39549 l 0.23395,0.60714 c 0.008,0.01976 0.0848,0.0057 0.18938,-0.02646 l -0.45118,1.7838 c 0,0 -0.67137,1.7777 -1.2018,2.494 -0.69426,0.93763 -1.3828,1.4901 -2.1459,1.7198 l -0.36764,0.11001 -0.10304,-3.6136 -0.66007,0.2604 0.0292,3.2794 h -0.19634 c -0.31596,0 -1.1183,-0.46564 -1.5889,-0.92326 -0.59929,-0.58273 -1.0974,-1.298 -1.4914,-2.1389 l -0.33282,-0.7088 -0.29939,0.05433 c -0.16431,0.03066 -0.31244,0.07179 -0.33003,0.08912 -0.05718,0.05611 0.40261,1.0382 0.79375,1.6961 0.20989,0.35303 0.57462,0.8547 0.81046,1.1154 0.23583,0.2607 0.4289,0.49515 0.4289,0.52081 0,0.0754 -1.1351,-0.35406 -1.756,-0.66424 -0.79299,-0.39615 -1.5385,-0.90746 -2.164,-1.4858 -0.51776,-0.4788 -0.52694,-0.49563 -0.36763,-0.62525 0.08984,-0.07318 0.48338,-0.36518 0.93161,-0.50828 l 1.2797,-0.40802 0.54727,-0.17546 0.61968,-0.28547 c 0.2995,-0.13795 0.58208,-0.17059 0.58208,-0.2047 0,-0.03415 -0.07542,-0.15862 -0.1685,-0.27712 -0.19358,-0.24599 -0.36233,-0.26294 -0.92604,-0.09191 -0.47209,0.14314 -2.744,0.16673 -3.9437,0.04035 -1.1713,-0.12337 -3.0142,-0.78875 -3.3518,-1.2101 -0.73857,-0.92155 -0.73793,-1.6181 -0.0013,-2.721 0.3295,-0.49338 0.34674,-0.55182 0.34674,-1.1126 0,-0.35796 -0.0328,-0.58276 -0.08216,-0.56676 -0.04492,0.01482 -0.3089,0.29918 -0.58765,0.63082 -0.9033,1.0747 -1.2724,2.083 -1.0876,2.9731 0.33124,1.5956 2.0843,2.587 5.1872,2.9355 l 0.81742,0.09191 -0.3941,0.23116 c -0.354,0.20791 -0.40772,0.22052 -0.53056,0.11001 -0.15481,-0.13895 -0.99567,-0.31536 -0.99567,-0.20888 0,0.12089 0.89495,1.1515 1.5388,1.7727 1.4956,1.443 3.6699,2.474 5.7721,2.7363 0.68453,0.08555 2.3671,0.04356 3.0692,-0.07659 4.0475,-0.69188 7.2913,-3.7088 8.3218,-7.7384 0.0899,-0.35173 0.1883,-0.88187 0.21863,-1.1781 l 0.0543,-0.53891 -0.23673,0.16989 c -0.39641,0.28252 -0.49714,0.44914 -0.59879,1.0026 -0.12814,0.69774 -0.20867,0.95373 -0.5974,1.8799 -0.30344,0.72301 -0.77231,1.5163 -1.2282,2.0749 l -0.19357,0.23534 -0.56676,-0.33421 c -0.31111,-0.18418 -0.84118,-0.45035 -1.1781,-0.59183 -0.33692,-0.14142 -0.63886,-0.28182 -0.67121,-0.31193 -0.0324,-0.03016 -0.006,-0.25518 0.0599,-0.50132 0.07,-0.263 0.21385,-0.73763 0.32864,-1.1767 0.78832,-0.3382 1.7538,-0.79326 2.1877,-1.0374 2.9291,-1.6482 4.5932,-3.4019 4.7625,-5.0215 0.15281,-1.462 -0.91624,-2.634 -2.9717,-3.2599 -0.19091,-0.05832 -0.34674,-0.08906 -0.34674,-0.0668 0,0.02225 0.13108,0.27518 0.29104,0.56119 0.25234,0.45124 0.34811,0.54727 0.7283,0.72134 0.24099,0.11026 0.60592,0.35309 0.80907,0.54031 0.95379,0.87919 0.79043,1.9833 -0.49435,3.3491 l -0.61551,0.65449 h -4.1262 l -0.0557,-0.79654 c -0.0752,-1.0691 -0.26835,-2.371 -0.4665,-3.1541 -0.0894,-0.35335 -0.15141,-0.65164 -0.13787,-0.66284 0.0133,-0.01233 0.2457,-0.10074 0.51525,-0.19914 0.26952,-0.09839 0.81359,-0.36279 1.2087,-0.58626 0.39513,-0.22348 0.74774,-0.38724 0.784,-0.36484 0.16593,0.1026 0.94995,1.341 1.2324,1.9468 0.50532,1.0838 0.89958,2.5175 0.89958,3.2725 v 0.25622 l 0.66563,-0.66563 -0.0933,-0.51246 c -0.57557,-3.1741 -2.7011,-6.0598 -5.4741,-7.4334 -0.29199,-0.14463 -0.63122,-0.31689 -0.75476,-0.38295 -0.12354,-0.06602 -0.22419,-0.09447 -0.22419,-0.06402 0,0.03037 -0.0469,0.01939 -0.10305,-0.02511 -0.11703,-0.09075 -0.66431,-0.26692 -1.49,-0.47904 -0.41131,-0.10556 -1.2852,-0.16046 -2.164,-0.16292 z m -0.40801,0.62943 v 4.892 l -0.55284,-0.0098 c -0.66768,-0.01233 -1.2593,-0.0938 -2.3729,-0.32725 -0.9909,-0.20767 -0.96609,-0.11913 -0.37738,-1.3661 0.77742,-1.6465 1.8234,-2.7442 2.9355,-3.0789 L 36.624,16.43187 Z m 0.96225,0.06125 c 0.0835,0.005 0.19684,0.05433 0.35231,0.10722 0.95801,0.32653 1.997,1.4827 2.7322,3.0399 0.57395,1.2157 0.5946,1.1329 -0.34675,1.3382 -0.44083,0.09618 -1.0885,0.21376 -1.4399,0.2604 -0.35139,0.0467 -0.83818,0.08494 -1.082,0.08494 h -0.44423 v -2.4091 c 0,-2.0205 -0.0221,-2.4318 0.22839,-2.4216 z m -3.182,0.30218 c 0.0085,0.0013 0.01389,0.0057 0.01389,0.01111 0,0.02495 -0.19306,0.25422 -0.42891,0.51106 -0.52936,0.57655 -1.1116,1.5387 -1.4858,2.4551 -0.15592,0.38186 -0.33033,0.7038 -0.38852,0.71437 -0.2317,0.04228 -2.1069,-0.88249 -2.1069,-1.0388 0,-0.10136 0.84913,-0.8585 1.4176,-1.263 0.27557,-0.1963 0.80822,-0.50953 1.1823,-0.69766 0.59399,-0.2988 1.5342,-0.66219 1.7602,-0.6907 0.01611,-0.0029 0.02773,-0.0036 0.03622,-0.0013 z m 5.1719,0 c 0.009,-0.0021 0.021,-0.0021 0.0376,0 v 0.0013 c 0.23058,0.03037 1.1901,0.39909 1.7713,0.69348 0.80498,0.40772 1.776,1.0902 2.2698,1.5959 0.35186,0.36028 0.35549,0.37366 0.19634,0.49296 -0.0898,0.06723 -0.49389,0.28491 -0.89819,0.48321 -0.92968,0.45601 -1.164,0.51562 -1.2352,0.31193 -0.40187,-1.1492 -1.0864,-2.3556 -1.7462,-3.0775 -0.22436,-0.24549 -0.40802,-0.46687 -0.40802,-0.49157 0,-0.005 0.004,-0.0079 0.0125,-0.0098 z m -10.09,3.1959 0.56816,0.33003 c 0.55194,0.3208 1.0031,0.5373 1.5861,0.75893 0.15721,0.05982 0.29715,0.11438 0.30915,0.12254 0.01212,0.0074 -0.05141,0.32451 -0.14065,0.70185 -0.20423,0.86358 -0.38352,2.0856 -0.45675,3.1151 l -0.05711,0.79654 h -4.0063 l 0.0529,-0.674 c 0.10247,-1.2887 0.57451,-2.7216 1.2923,-3.9256 0.23211,-0.38937 0.5193,-0.82449 0.63778,-0.96642 l 0.21445,-0.25901 z m 3.2572,1.4956 c 0.06068,0 0.41681,0.07149 0.79097,0.15874 0.68536,0.15996 1.5205,0.28512 2.5372,0.37738 l 0.55284,0.04877 v 3.7445 h -2.274 c -1.2503,0 -2.2892,-0.01767 -2.3088,-0.03622 -0.01974,-0.01974 -0.0082,-0.46027 0.02511,-0.98035 0.10206,-1.5925 0.45322,-3.3129 0.67678,-3.3129 z m 8.5154,0.04592 c 0.059,-0.0021 0.097,7.94e-4 0.10582,0.0098 0.17445,0.18294 0.53058,2.431 0.58627,3.7014 l 0.0222,0.53195 -2.3061,0.02225 -2.3088,0.02225 v -1.8813 c 0,-1.0339 0.0289,-1.8785 0.0627,-1.8785 0.44871,-5.29e-4 2.0792,-0.21562 2.8672,-0.37738 0.41699,-0.08554 0.79361,-0.14298 0.97061,-0.1504 z m 1.4329,4.938 3.2028,0.0029 -0.20471,0.16989 c -0.94433,0.72902 -2.0917,1.2558 -3.1736,1.7602 0.10605,-0.0801 0.0777,-0.60718 0.11976,-1.1795 l 0.0557,-0.75336 z m -3.6568,2.313 c -0.65816,0.03658 -1.344,0.38761 -1.4817,1.05 -0.053,0.25524 -0.0508,0.25424 -0.47486,0.38712 l -0.29104,0.09052 -0.36206,0.11558 0.0153,0.0083 c -0.004,-0.0021 -0.0155,-0.0076 -0.0153,-0.0071 l -0.3161,0.1309 c -0.17751,0.06103 -0.34243,0.13735 -0.36624,0.1685 -0.05583,0.07293 -0.01648,0.24069 0.06823,0.29382 0.06659,0.04178 0.11405,0.04128 0.52638,0 l 0.22838,-0.02225 -0.31611,0.35649 -0.3189,0.35927 -0.68234,0.15597 c -0.56109,0.12881 -0.69281,0.16905 -0.74641,0.22838 -0.07275,0.0806 -0.06467,0.18545 0.01812,0.22699 0.03515,0.01733 0.5862,-0.07963 1.5583,-0.27572 1.4136,-0.28512 1.5052,-0.30822 1.5555,-0.38017 0.0686,-0.09813 0.0471,-0.1911 -0.0612,-0.25901 -0.0772,-0.04848 -0.13317,-0.04364 -0.54866,0.05155 l -0.14065,-0.11279 -0.12672,-0.0933 -0.18799,-0.25762 0.74779,-0.10026 0.36346,-0.04591 c 0.65048,0.74682 1.6301,0.56686 2.2434,0.19078 0.58153,-0.3567 1.0997,-0.91801 0.8592,-1.6293 -0.24052,-0.71124 -1.1004,-0.6131 -1.7476,-0.63082 z m -1.9955,0.55702 c -0.0521,-7.94e-4 -0.74257,0.16503 -1.5346,0.36763 -1.4801,0.37847 -1.5406,0.39929 -1.5095,0.53474 0.03002,0.13103 0.09544,0.12778 0.81742,-0.03758 l 0.70184,-0.16153 0.45397,0.18242 0.51524,-0.11558 0.0794,-0.17546 0.1114,-0.14901 c 0.45938,-0.11495 0.49614,-0.12954 0.51664,-0.2047 0.0328,-0.12039 -0.0409,-0.23869 -0.1518,-0.24091 z m 4.8488,2.4537 c 0.13202,-0.02745 1.68,0.68861 1.9649,0.90933 0.16047,0.12435 0.15689,0.1312 -0.12393,0.42472 -0.47231,0.49368 -1.4683,1.2042 -2.2476,1.6042 -0.73209,0.37574 -1.9161,0.84175 -1.9161,0.75336 0,-0.02574 0.19167,-0.26009 0.42751,-0.52081 0.5239,-0.57912 1.1322,-1.5861 1.497,-2.4787 0.15357,-0.37581 0.32691,-0.67716 0.39826,-0.69209 z"
       style="stroke-width:0.237036" />
  </g>
</svg>
