<?xml version="1.0" encoding="UTF-8" standalone="no"?>
<svg
   width="300"
   height="300"
   version="1.1"
   viewBox="0 0 79.375 79.375"
   id="svg1"
   sodipodi:docname="tearran - Copy.svg"
   inkscape:version="1.3.2 (091e20e, 2023-11-25, custom)"
   xmlns:inkscape="http://www.inkscape.org/namespaces/inkscape"
   xmlns:sodipodi="http://sodipodi.sourceforge.net/DTD/sodipodi-0.dtd"
   xmlns="http://www.w3.org/2000/svg"
   xmlns:svg="http://www.w3.org/2000/svg">
  <defs
     id="defs1" />
  <sodipodi:namedview
     id="namedview1"
     pagecolor="#505050"
     bordercolor="#ffffff"
     borderopacity="1"
     inkscape:showpageshadow="0"
     inkscape:pageopacity="0"
     inkscape:pagecheckerboard="1"
     inkscape:deskcolor="#d1d1d1"
     inkscape:zoom="1.6933333"
     inkscape:cx="149.70473"
     inkscape:cy="149.70473"
     inkscape:window-width="1920"
     inkscape:window-height="1174"
     inkscape:window-x="-11"
     inkscape:window-y="-11"
     inkscape:window-maximized="1"
     inkscape:current-layer="svg1"
     showgrid="false" />
  <g
     id="directive_zero"
     stroke-width="3">
    <path
       id="picorder-icon"
       d="m 52.018866,1.2532919 c -1.902161,0.017374 -3.410996,0.1045423 -3.515913,0.2742901 -0.100922,0.1632825 -0.613207,0.296453 -1.138169,0.296453 -0.584765,0 -1.26468,0.2579465 -1.756013,0.6660606 -0.441086,0.3663633 -1.122298,0.7443346 -1.513311,0.8394982 -0.964354,0.2346994 -2.630252,1.9970506 -3.646685,3.8577928 l -0.83728,1.5327089 -0.74585,-1.4717546 C 37.962115,5.4653098 36.169339,3.6103242 35.096497,3.3484282 34.663418,3.2427097 33.94836,2.8564589 33.507276,2.490093 33.015943,2.0819789 32.335471,1.8240325 31.750709,1.8240325 c -0.524962,0 -1.033423,-0.1276664 -1.129858,-0.2837072 -0.218745,-0.3539479 -8.007558,-0.3498889 -9.788069,0.00461 -0.702181,0.1399587 -1.963192,0.3820612 -2.802197,0.5386094 -0.839006,0.1565483 -1.742569,0.4816835 -2.008138,0.7220178 -0.265567,0.2403344 -0.829509,0.4366501 -1.25343,0.4366501 -0.44993,7.7e-6 -1.075045,0.3042636 -1.501676,0.7308892 -0.601425,0.6014241 -0.705612,0.9196217 -0.587926,1.7970218 0.07865,0.586418 0.02187,1.2828314 -0.126339,1.5476648 -0.176866,0.3160407 -0.151116,0.8403968 0.07481,1.5249441 0.189317,0.57364 0.369429,1.4631795 0.400631,1.9771055 0.0312,0.513927 0.268325,1.167724 0.526417,1.452905 0.258088,0.28519 0.468786,0.842687 0.468786,1.238464 0,0.395784 0.232293,1.023703 0.515889,1.395837 0.283598,0.372135 0.680296,1.087268 0.881611,1.589227 0.20131,0.501956 0.561103,1.074885 0.799599,1.272821 0.238493,0.19793 0.746621,0.855567 1.129303,1.46177 0.382684,0.606213 1.058228,1.23919 1.501122,1.406368 0.442894,0.167172 0.935517,0.58944 1.094393,0.938131 0.185531,0.407201 0.877724,0.850499 1.93555,1.239568 0.905826,0.333167 1.96255,0.864647 2.347814,1.180834 0.637671,0.523335 0.656056,0.599296 0.210012,0.848915 -0.269494,0.150814 -1.429748,1.03051 -2.578884,1.95495 -4.876959,3.923308 -8.099039,8.451296 -9.961977,14.00099 -0.677422,2.018379 -0.711496,2.431676 -0.711496,8.651344 0,6.256208 0.03178,6.631068 0.743082,8.887008 2.972055,9.426157 10.661112,16.769259 20.26152,19.349441 1.111988,0.298843 3.197113,0.422144 7.372604,0.435535 6.598363,0.02117 8.150307,-0.259353 12.369105,-2.235329 7.224766,-3.383876 12.537375,-9.296752 15.342545,-17.076418 0.705616,-1.956904 0.760819,-2.468782 0.868867,-8.050301 0.103489,-5.346145 0.05416,-6.199475 -0.476547,-8.278039 -0.835605,-3.272748 -2.268035,-6.513978 -4.08776,-9.248833 -1.682726,-2.528991 -5.458434,-6.354078 -7.626394,-7.726135 -0.735022,-0.465178 -1.306047,-0.973819 -1.268388,-1.129857 0.03767,-0.156042 1.016912,-0.746687 2.175487,-1.312718 1.167338,-0.570313 2.223114,-1.290962 2.368314,-1.616375 0.144114,-0.322967 0.61921,-0.711747 1.055605,-0.863878 0.436395,-0.152128 1.025598,-0.637625 1.309395,-1.078882 0.283797,-0.441256 0.931649,-1.200206 1.439613,-1.686748 0.507967,-0.486549 0.923166,-1.068444 0.923166,-1.292765 0,-0.224336 0.319178,-0.840489 0.709278,-1.369247 0.390102,-0.528753 0.709278,-1.293993 0.709278,-1.700594 0,-0.406601 0.14731,-0.885959 0.326934,-1.065582 C 66.156845,11.93776 66.539119,9.7734725 66.65988,6.9729244 66.75442,4.7804578 66.71142,4.5525233 66.08193,3.923028 65.707742,3.5488413 65.118427,3.2425636 64.772532,3.2425636 64.426636,3.2425713 63.925861,3.0455406 63.659852,2.8048142 63.393849,2.5640801 62.68178,2.2970316 62.077278,2.2107933 61.472772,2.1245549 60.594888,1.8867574 60.126762,1.6827157 59.451595,1.3884304 55.189106,1.2243561 52.018839,1.2532689 Z m -27.736079,2.2441953 0.986896,0.5818285 c 1.179066,0.6956651 1.804778,0.7429586 1.804778,0.1368683 0,-0.3714755 0.135942,-0.3480748 0.823981,0.1418575 0.908432,0.6468494 1.595429,0.7498849 1.884573,0.2820467 0.120405,-0.1948167 0.43841,-0.070648 0.879946,0.3441079 0.57658,0.541669 0.781311,0.5936597 1.232367,0.3119742 0.466299,-0.2912103 0.62565,-0.2183635 1.157566,0.528631 0.463396,0.6507783 0.771541,0.8277133 1.2368,0.7109398 0.511224,-0.128304 0.774903,0.1030822 1.510534,1.3254621 1.591698,2.6448688 1.88682,4.2848938 1.059483,5.8847828 C 36.07264,15.268008 35.455196,15.340219 33.794302,14.1045 30.629016,11.749511 26.538343,9.5805345 22.903589,8.3299902 21.030351,7.6855014 20.83209,7.6666286 20.8356,8.1366043 c 0.0014,0.1950469 1.367129,1.1206582 3.034933,2.0569017 3.622461,2.033531 7.204538,4.531193 8.710281,6.073177 l 1.094948,1.121547 -0.549691,0.940907 c -0.688909,1.179579 -2.039854,2.102029 -3.878857,2.648157 -1.889648,0.561172 -3.591277,0.561333 -3.591277,5.69e-4 0,-0.271639 -0.395645,-0.48535 -1.109904,-0.599564 -0.699187,-0.111807 -1.156456,-0.354655 -1.235142,-0.655529 -0.06935,-0.265149 -0.648723,-0.634457 -1.301631,-0.830073 -0.931306,-0.279041 -1.176401,-0.486542 -1.176401,-0.997436 0,-0.458191 -0.287957,-0.783118 -0.992986,-1.119326 -0.742692,-0.354171 -0.992986,-0.651801 -0.992986,-1.180835 0,-0.43309 -0.263412,-0.879484 -0.679355,-1.152014 -0.468429,-0.306932 -0.632669,-0.622649 -0.529739,-1.016262 0.09893,-0.378295 -0.117541,-0.849285 -0.642231,-1.396939 -0.681706,-0.711548 -0.726622,-0.851336 -0.32139,-1.00684 0.757653,-0.290741 0.543276,-1.0890715 -0.451611,-1.6823165 -0.715502,-0.426648 -0.810835,-0.572164 -0.425567,-0.6494315 0.562778,-0.1128675 0.668869,-1.1916052 0.202811,-2.0624367 -0.272699,-0.5095507 -0.189042,-0.5491414 1.16809,-0.5491414 1.416107,0 1.457525,-0.022755 1.322695,-0.728114 l -0.13964,-0.7275606 1.808656,0.1933869 c 1.241053,0.1329014 1.8081,0.096186 1.8081,-0.1174728 0,-0.2073396 0.441534,-0.2508431 1.321584,-0.1302186 1.260153,0.1727228 1.313854,0.152128 1.157568,-0.4455137 z m 31.105169,0.047124 -0.157372,0.6017775 c -0.147016,0.5621793 -0.07983,0.5895314 1.021806,0.4133723 0.788211,-0.1260365 1.179178,-0.084147 1.179178,0.1263442 0,0.2168875 0.518094,0.2548406 1.663481,0.1219007 1.529044,-0.1774583 1.67549,-0.1458088 1.817521,0.3973054 0.124374,0.4756104 0.377671,0.5907 1.301076,0.5907 h 1.147035 l -0.411159,0.9841199 c -0.523858,1.2537718 -0.522456,1.2628086 0.175657,1.5210662 0.573552,0.2121667 0.569796,0.2331304 -0.165682,0.9686081 -0.828257,0.8282585 -0.842624,1.8008815 -0.02548,1.7305245 0.402957,-0.03467 0.315123,0.162459 -0.40285,0.903222 -0.527044,0.543768 -0.851453,1.123604 -0.760811,1.359816 0.09026,0.235206 -0.192316,0.747188 -0.659405,1.19468 -0.621523,0.595459 -0.75531,0.900412 -0.556894,1.271163 0.213638,0.399188 0.05185,0.581967 -0.891579,1.007395 -0.633904,0.285852 -1.259469,0.801268 -1.390293,1.145378 -0.13753,0.361728 -0.664148,0.766353 -1.248442,0.959187 -0.692192,0.228443 -1.010718,0.505254 -1.010718,0.878836 0,0.458928 -0.206703,0.545258 -1.303297,0.545258 -1.06466,0 -1.330032,0.103882 -1.451247,0.567422 -0.16172,0.618422 -0.778433,0.67999 -2.777818,0.276506 -2.456507,-0.495737 -4.130905,-1.491573 -4.851344,-2.884762 -0.436182,-0.843488 -0.42567,-0.88144 0.500927,-1.843018 1.480143,-1.536032 4.448971,-3.638059 8.373901,-5.928558 1.982197,-1.1567715 3.44465,-2.1034551 3.249379,-2.1034551 -0.195281,0 -0.27653,-0.1276657 -0.180091,-0.2837071 0.267519,-0.4328597 0.02051,-0.3640799 -2.640392,0.7353177 -3.58598,1.4816205 -7.599573,3.5966065 -9.630133,5.0741015 -1.55613,1.132317 -1.841055,1.245879 -2.340058,0.934245 -1.560026,-0.974246 -1.735685,-3.33477 -0.434989,-5.8448845 0.796288,-1.5366979 2.111833,-3.1895019 2.126721,-2.6719794 0.01774,0.6165224 0.785355,0.385236 1.486712,-0.4482812 0.538274,-0.6397001 0.772513,-0.7427971 1.149811,-0.5048075 0.373374,0.235522 0.648671,0.1314409 1.298308,-0.4909546 0.680598,-0.6520538 0.853712,-0.7121625 0.994096,-0.3463219 0.235108,0.6126785 0.951141,0.5535231 1.845786,-0.1518282 0.649534,-0.5121106 0.766576,-0.5317675 0.845592,-0.1418575 0.121749,0.6007476 0.692311,0.5713736 2.018669,-0.1052803 z M 39.220884,24.834549 c 4.957892,-0.02145 9.9923,1.412091 14.214873,4.246243 1.339574,0.899096 2.843855,2.059806 3.343022,2.579985 l 0.907655,0.945896 -4.170333,0.01937 c -4.668603,0.02145 -6.904616,0.468308 -11.546799,2.307917 -8.216854,3.256177 -18.050338,9.647729 -22.04186,14.326256 -1.516906,1.778 -3.276592,4.472205 -3.683253,5.638757 -0.15921,0.456707 -0.393092,0.830074 -0.519767,0.830074 -0.12668,0 -0.386167,-0.92198 -0.576291,-2.049146 -0.476421,-2.824551 -0.20146,-8.006269 0.568532,-10.71783 1.848092,-6.508171 6.408497,-12.134209 12.492702,-15.411818 3.345259,-1.802121 7.15539,-2.699073 11.011492,-2.715755 z m 0.415594,2.901938 c -0.217306,-0.0031 -0.434799,-0.0023 -0.652204,0.0016 -5.589233,0.03113 -11.028148,2.51313 -14.884882,6.525903 -2.898547,3.000927 -5.122208,6.783862 -5.885338,10.914031 -0.110369,0.654699 -0.181209,1.315921 -0.232734,1.977661 3.768414,-4.214493 8.560802,-7.34814 13.392055,-10.20866 5.026908,-2.838687 10.289037,-5.451362 15.956008,-6.714307 0.578108,-0.11884 1.161496,-0.213197 1.748812,-0.27263 -2.943091,-1.396545 -6.182134,-2.181328 -9.441704,-2.223694 z m 14.196082,8.363378 c 2.855163,-0.07326 4.957311,0.610111 5.880349,2.123946 0.692626,1.135939 0.703768,2.357697 0.03712,4.112146 -3.156053,8.306073 -19.073204,19.038184 -31.43317,21.193503 -3.548592,0.61882 -5.811648,0.413618 -7.595361,-0.688777 -5.041613,-3.115882 2.277803,-13.391457 14.536899,-20.407754 6.965833,-3.98679 13.815551,-6.210989 18.5742,-6.333067 z m 0.273182,2.921891 c -4.899689,0.190773 -9.569401,2.016389 -13.94564,4.106603 -5.684215,2.857633 -11.105365,6.492088 -15.280447,11.343422 -1.257897,1.587494 -2.60748,3.319335 -2.847083,5.391612 -0.01774,0.731535 0.99829,0.815875 1.517743,0.966951 1.774464,0.337681 3.602116,-0.07264 5.354491,-0.393985 6.778266,-1.555813 13.081052,-4.81481 18.705485,-8.851559 3.460306,-2.59016 6.864127,-5.503876 8.984553,-9.334763 0.33631,-0.77277 0.899711,-1.682324 0.621171,-2.541761 C 56.389806,39.00653 55.129926,39.051963 54.10572,39.02172 Z m 9.492698,3.863337 0.382346,1.528275 c 0.616568,2.465263 0.472264,8.431122 -0.269858,11.173869 -2.404121,8.885214 -9.296154,15.779025 -17.996783,18.000712 -2.083663,0.53206 -6.183245,0.900514 -7.716713,0.693758 -5.825821,-0.785462 -10.426303,-2.591473 -13.819225,-5.425411 l -1.619697,-1.353179 3.605678,-0.171216 c 7.62654,-0.36242 15.101072,-3.165321 23.181746,-8.693625 7.17876,-4.91128 11.102034,-8.951583 13.299464,-13.695711 z m -2.309026,9.376275 c -0.01972,-0.01023 -0.05471,0.02084 -0.11138,0.110823 -4.314575,4.801502 -9.662163,8.563364 -15.226207,11.778961 -4.548507,2.5953 -9.485864,4.578598 -14.656564,5.490798 2.619978,0.939378 5.360897,1.735649 8.160566,1.783722 4.374512,-0.04797 8.789548,-1.228164 12.380807,-3.781337 4.817252,-3.329892 8.3981,-8.580276 9.356372,-14.391088 -0.02051,-0.129926 0.1819,-0.947459 0.09642,-0.991876 z"
       stroke-width="0.999997" />
  </g>
</svg>
