<?xml version="1.0" encoding="UTF-8" standalone="no"?>
<!-- Created with Inkscape (http://www.inkscape.org/) -->

<svg
   class="xx-large-icon green-blue"
   version="1.1"
   viewBox="0 0 1500 1500"
   id="svg7"
   sodipodi:docname="armian-tux-logo.svg"
   inkscape:version="1.3.1 (91b66b0783, 2023-11-16)"
   xmlns:inkscape="http://www.inkscape.org/namespaces/inkscape"
   xmlns:sodipodi="http://sodipodi.sourceforge.net/DTD/sodipodi-0.dtd"
   xmlns="http://www.w3.org/2000/svg"
   xmlns:svg="http://www.w3.org/2000/svg">
  <defs
     id="defs7" />
  <sodipodi:namedview
     id="namedview7"
     pagecolor="#505050"
     bordercolor="#ffffff"
     borderopacity="1"
     inkscape:showpageshadow="0"
     inkscape:pageopacity="0"
     inkscape:pagecheckerboard="1"
     inkscape:deskcolor="#d1d1d1"
     inkscape:zoom="0.57666667"
     inkscape:cx="749.13295"
     inkscape:cy="750"
     inkscape:window-width="1920"
     inkscape:window-height="1174"
     inkscape:window-x="-11"
     inkscape:window-y="-11"
     inkscape:window-maximized="1"
     inkscape:current-layer="svg7" />
  <g
     transform="matrix(7.1562,0,0,7.1562,-2173.5,-1909.3)"
     style="display:inline;stroke-width:0.13974"
     id="g6">
    <path
       d="m 373.24,306.32 66.725,1.7795 17.437,23.017 1.0308,6.0249 -26.664,28.976 -23.823,11 -22.437,-11.054 -26.369,-26.381 0.14689,-7.444 z"
       style="display:inline;opacity:0.99;fill:#d3d3d3;stroke:#f5f5f5;stroke-width:0.13974;paint-order:markers stroke fill"
       id="path1" />
    <path
       d="m 397.88,362.42 -8.6286,-11.951 18.627,-10.975 0.13397,18.379 0.009,18.75 z m -26.469,87.453 0.6571,-4.25 2.0965,-6.5 h 29.807 l 1.0219,4.5 0.98365,4.5 0.98364,4.5 0.0244,0.75 0.0245,0.75 c -3.3724,3.3019 -6.6458,6.7262 -18.128,0 h -18.128 z m 40.382,-3.25 1.4924,-7.5 h 30.405 l 2.4606,11.5 0.49621,1.75 0.49622,1.75 h -36.843 z m -13.913,-84.203 -8.6286,-11.951 9.1286,-5.4876 9.4975,-5.4876 0.13509,18.379 0.009,18.75 z"
       style="display:inline;fill:#ee7122;stroke:#000000;stroke-width:0.13974"
       id="path2" />
    <path
       d="m 375.01,458.61 -4.4164,-4.5 36.916,0.0412 -10,8.882 -18.084,0.0768 z m 40.204,0.0156 -4.9128,-4.5156 17.667,0.0205 18.458,-0.0206 -8.8328,9 -18.084,-0.0768 z m -29.986,-24.977 3.2817,-4.461 h 1 l 6.5634,8.922 h -14.127 z m 36.711,4.461 6.6614,-9.2249 6.527,9.2249 h -6.5942 z m -13.924,-79.823 -0.13708,-18.806 5.8811,3.7588 5.75,3.2766 5.4874,3.0936 0.012,2.4676 -10.5,14.958 -6.4818,9.5838 z"
       style="display:inline;fill:#eb1b21;stroke:#000000;stroke-width:0.13974"
       id="path3" />
    <path
       d="m 393.12,321.96 -2.3066,0.32617 -2.3047,0.32617 -0.34375,2.4453 -0.34571,2.4434 1.7871,1.3066 1.7852,1.3047 h 1.4746 l 1.5723,-1.5703 1.5703,-1.5723 v -2.6113 l -1.4453,-1.1992 z m 31.779,0 -2.8906,2.3984 v 2.6113 l 3.1426,3.1426 h 2.6133 l 1.1992,-1.4453 1.1992,-1.4434 -0.32617,-2.3066 -0.32812,-2.3047 -2.3047,-0.32617 z"
       style="display:inline;stroke:#f5f5f5;stroke-width:0.13974"
       id="path4" />
    <path
       d="m 358.68,336.94 0.002,0.0104 26.826,29.109 -12.499,72.046 h 8.6608 l 6.4632,-9.0001 h 1.5368 l 6.4632,9.0001 h 8.5912 l 3.2839,16.372 -4.0426,4.303 2.2718,1.0947 2.2705,1.0947 1,0.0718 3.8387,-2.9045 -3.6788,-4.0653 1.42,-7.7334 1.4536,-8.4043 8.4905,0.0548 7.5967,-10.187 7.4149,10.232 3.631,0.0317 4.1649,0.039 -12.073,-71.993 26.665,-28.976 1.3409,1.4757 0.0224,0.0892 -0.0221,-0.0963 -1.3406,-1.476 -26.665,28.976 h -15.696 l -7.5761,11.022 -1.1546,-0.0217 -7.5759,-11 -14.256,-0.0535 z m -8.9228,35.659 -0.003,0.006 -0.0227,0.0287 0.0218,-0.0202 z m 118.87,1.5805 0.003,0.012 10e-4,-0.004 z m -95.632,63.916 0.0109,2.8177 v -2.8062 l -10e-4,0.006 z"
       style="display:inline;fill:#a9a9a9;stroke:#f5f5f5;stroke-width:0.13974"
       id="path5" />
    <path
       d="m 333.47,408.45 -1.6367,-3.8326 7.5427,-23.372 4.4272,-3.1206 5.9535,-5.507 8.9257,-35.665 26.828,29.111 -12.5,72.054 -23.1,-41.794 -2.8188,3.2939 -0.0812,3.2591 -9.5,7.5987 -2.4041,1.8075 z m 142.29,-1.0315 -5.75,-4.6096 v -4.0821 l -2.6347,-2.75 -23.532,42.14 -12.074,-72 26.665,-28.976 1.3408,1.4759 8.8607,35.582 4.8578,3.9064 4.3437,2.9885 7.3898,22.177 -2.4767,8.8458 -1.2401,-0.0892 z m -112.02,-92.49 4.45,-17.311 1.3218,-1.3231 38.352,-16.177 1.6477,-0.014 39,16.392 0.31202,0.1216 9.0269,34.5 h -0.59428 l -17.288,-23.017 -7.4564,1.1349 -23.734,3.5339 -27.266,-4.6291 -4.2909,-0.023 -16.58,22.5 -1.3507,1.6219 z"
       style="display:inline;fill:#000000;stroke:#f5f5f5;stroke-width:0.13974;fill-opacity:1.0"
       id="path6" />
  </g>
  <g
     transform="matrix(7.1562,0,0,7.1562,-2173.5,-1909.3)"
     style="display:none;stroke-width:0.13974"
     id="g7">
    <path
       d="m 409.51,280.1 c -4.463,0.37376 -8.4067,3.2599 -12.658,4.658 -9.1912,4.0094 -18.66,7.607 -27.68,11.871 -2.3389,2.8972 -2.1796,7.219 -3.4831,10.707 -2.1336,8.2998 -4.2672,16.6 -6.4008,24.9 6.1708,-7.8887 11.924,-16.105 17.931,-24.122 8.76,0.0375 17.304,2.5631 25.968,3.7032 6.2528,1.8924 12.548,-0.3859 18.827,-1.0222 5.9857,-0.88947 11.971,-1.7788 17.953,-2.6977 5.7627,7.6724 11.525,15.345 17.288,23.017 1.0358,-1.4443 -1.2475,-5.451 -1.4627,-7.8611 -2.3233,-8.8797 -4.6466,-17.759 -6.97,-26.639 -13.111,-5.488 -26.207,-11.012 -39.312,-16.513 z m -16.391,41.857 c -3.3185,-0.0928 -5.585,0.86405 -5.156,4.5173 -0.15194,1.8745 3.9204,4.9042 5.5783,2.9595 2.4507,-1.4477 3.8568,-5.1297 0.65332,-6.583 l -1.0756,-0.89376 z m 31.779,0 c -2.7779,1.2572 -4.3321,4.8568 -1.2006,6.6995 1.861,2.976 5.2752,1.133 6.4643,-1.4361 0.17315,-3.5245 -1.0857,-5.6207 -4.8522,-5.2052 z m -66.217,14.993 c -2.9752,11.888 -5.9504,23.777 -8.9256,35.665 -3.2891,3.0875 -6.5321,6.232 -10.381,8.6278 -2.5142,7.7906 -5.0284,15.581 -7.5426,23.372 1.2874,2.2025 2.0442,6.3875 3.655,7.3785 3.9211,-2.9359 7.6747,-6.0878 11.522,-9.1189 -0.8514,-2.1353 1.8695,-7.1937 3.3625,-5.7163 7.5459,13.652 15.092,27.305 22.638,40.957 4.1666,-24.018 8.3332,-48.036 12.5,-72.054 l -26.828,-29.111 z m 99.752,0.18804 c -8.8884,9.6586 -17.777,19.317 -26.665,28.976 4.0246,24 8.0492,48 12.074,72 7.844,-14.047 15.688,-28.093 23.532,-42.14 3.3376,1.5719 1.93,5.1967 3.3807,7.4302 3.7812,2.7887 7.276,6.3084 11.231,8.6546 2.0791,-1.0345 1.7988,-5.4229 2.9544,-7.77 0.36062,-3.242 -1.9147,-6.4199 -2.5852,-9.6368 -1.7184,-4.5498 -2.7896,-9.5864 -4.9126,-13.832 -3.0489,-2.1907 -6.5688,-4.268 -8.9232,-7.0879 -2.9151,-11.706 -5.8302,-23.412 -8.7454,-35.118 -0.44687,-0.49191 -0.89375,-0.98383 -1.3406,-1.4757 z m -50.557,2.3398 c -6.2319,3.5923 -12.473,7.2368 -18.626,10.988 6.2981,8.6882 12.543,17.415 18.77,26.154 -0.003,-6.2225 -0.006,-12.445 -0.009,-18.667 0.008,6.2212 0.008,12.442 0.0135,18.664 5.509,-8.2851 11.262,-16.402 16.982,-24.542 1.0635,-3.5268 -3.3723,-3.8229 -5.4249,-5.5191 -4.0023,-2.1983 -7.8908,-4.5676 -11.705,-7.0773 z m 20.723,89.404 c -2.2204,3.075 -4.4409,6.15 -6.6614,9.225 h 13.188 c -2.1757,-3.075 -4.3514,-6.15 -6.5271,-9.225 z m -40.091,0.30295 c -2.1878,2.9741 -4.3757,5.9481 -6.5636,8.922 h 14.127 c -2.1878,-2.974 -4.3756,-5.948 -6.5634,-8.922 z m -14.345,9.9354 c -1.8938,4.8162 -2.7471,9.8791 -3.4091,14.987 2.3402,2.7683 5.8755,6.0397 8.6701,8.9998 6.028,-0.0257 12.056,-0.0513 18.084,-0.077 3.3334,-2.9606 6.6667,-5.9213 10,-8.8819 -1.1538,-1.1947 -0.87729,-4.8967 -1.7367,-6.962 -0.86968,-2.527 -0.75185,-6.3269 -2.2793,-8.0661 h -29.329 z m 39.121,0 c -0.98412,4.9942 -2.0155,10.033 -2.9709,15 3.1828,2.8486 6.2671,5.7986 9.1944,8.9103 6.028,0.0256 12.056,0.0511 18.084,0.0767 2.94,-2.9956 5.88,-5.9913 8.8199,-8.987 1.3004,-1.1518 -1.2163,-5.3229 -1.1624,-7.7064 -1.1884,-2.196 0.0119,-7.3458 -2.9946,-7.2934 -9.6568,1e-4 -19.314,2e-4 -28.97,3e-4 z m -31.201,15 c 1.1885,5e-5 8.8691,-0.002 5.3776,0.006 -1.7925,-0.002 -3.585,-0.004 -5.3776,-0.006 z m 39.288,0 h 13.396 c -4.4654,0.008 -8.9307,0.009 -13.396,0 z"
       style="stroke:#000000;stroke-width:0.13974"
       id="path7" />
  </g>
</svg>
