<?xml version="1.0" encoding="UTF-8" standalone="no"?>
<svg
   width="24"
   height="24"
   viewBox="0 0 24 24"
   version="1.1"
   id="svg1"
   sodipodi:docname="icons.svg"
   xml:space="preserve"
   inkscape:version="1.3.1 (91b66b0783, 2023-11-16)"
   xmlns:inkscape="http://www.inkscape.org/namespaces/inkscape"
   xmlns:sodipodi="http://sodipodi.sourceforge.net/DTD/sodipodi-0.dtd"
   xmlns="http://www.w3.org/2000/svg"
   xmlns:svg="http://www.w3.org/2000/svg"><defs
     id="defs1" /><sodipodi:namedview
     id="namedview1"
     pagecolor="#505050"
     bordercolor="#ffffff"
     borderopacity="1"
     inkscape:showpageshadow="0"
     inkscape:pageopacity="0"
     inkscape:pagecheckerboard="1"
     inkscape:deskcolor="#d1d1d1"
     inkscape:zoom="21.552511"
     inkscape:cx="6.7045551"
     inkscape:cy="13.571504"
     inkscape:window-width="1920"
     inkscape:window-height="1174"
     inkscape:window-x="-11"
     inkscape:window-y="-11"
     inkscape:window-maximized="1"
     inkscape:current-layer="svg1" /><g
     id="g2"
     inkscape:label="dark-mode"
     style="display:inline"><path
       id="path1"
       style="display:inline;fill:#ffd700;stroke:none;stroke-opacity:1"
       d="M 11.972663,2.034179 C 11.703255,2.0350705 11.435405,2.0755509 10.974616,2.1572259 8.6521199,2.5688891 6.9870209,3.9284845 6.2871163,5.9833978 6.1061809,6.5146225 6.0553613,6.9108056 6.0566475,7.784179 c 0.00214,1.4561329 0.2759511,2.319889 1.3710938,4.320313 1.4741053,2.69265 1.7427985,3.31849 1.7441406,4.060547 3.27e-4,0.180887 0.019628,0.40039 0.019628,0.40039 L 11.14966,16.89306 11.19722,16.342777 C 11.19052,15.280179 10.62623,13.821592 9.3086007,11.463867 8.2724217,9.6097589 8.0515775,8.9517439 8.0566475,7.7294915 8.0598075,6.9671753 8.1113747,6.660813 8.3027413,6.237304 8.6312389,5.5103129 9.3900953,4.7683797 10.175788,4.4052728 11.19893,3.9324277 12.948407,3.9983754 13.78321,4.3896478 c 0.813975,0.38151 1.600622,1.1343868 1.90625,1.8242187 0.196008,0.4424097 0.247913,0.7519374 0.251953,1.515625 0.0065,1.2220394 -0.212817,1.8783824 -1.25,3.7343755 -1.319383,2.360865 -1.882072,3.818138 -1.888672,4.884765 l -0.05111,0.812465 1.94542,0.325501 0.152519,-1.512966 c 0.09428,-0.757113 0.355114,-1.383194 1.263672,-3.017578 C 17.706092,10.090712 17.93952,9.4349069 17.94332,7.784179 17.94532,6.9090332 17.89415,6.5157005 17.712852,5.9833978 17.018116,3.943526 15.289991,2.5452615 12.974616,2.1513665 12.512476,2.0727455 12.242071,2.0332875 11.972663,2.034179 Z"
       sodipodi:nodetypes="sssssscccssssssscccccscsss"
       inkscape:label="dark-mode" /><path
       id="path1-4"
       style="display:none;fill:#000000;stroke:none;stroke-opacity:1"
       d="M 11.972663,2.034179 C 11.703255,2.0350705 11.435405,2.0755509 10.974616,2.1572259 8.6521199,2.5688891 6.9870209,3.9284845 6.2871163,5.9833978 6.1061809,6.5146225 6.0553613,6.9108056 6.0566475,7.784179 c 0.00214,1.4561329 0.2759511,2.319889 1.3710938,4.320313 1.4741053,2.69265 1.7427985,3.31849 1.7441406,4.060547 3.27e-4,0.180887 0.019628,0.40039 0.019628,0.40039 L 11.14966,16.89306 11.19722,16.342777 C 11.19052,15.280179 10.62623,13.821592 9.3086007,11.463867 8.2724217,9.6097589 8.0515775,8.9517439 8.0566475,7.7294915 8.0598075,6.9671753 8.1113747,6.660813 8.3027413,6.237304 8.6312389,5.5103129 9.3900953,4.7683797 10.175788,4.4052728 11.19893,3.9324277 12.948407,3.9983754 13.78321,4.3896478 c 0.813975,0.38151 1.600622,1.1343868 1.90625,1.8242187 0.196008,0.4424097 0.247913,0.7519374 0.251953,1.515625 0.0065,1.2220394 -0.212817,1.8783824 -1.25,3.7343755 -1.319383,2.360865 -1.882072,3.818138 -1.888672,4.884765 l -0.05111,0.812465 1.94542,0.325501 0.152519,-1.512966 c 0.09428,-0.757113 0.355114,-1.383194 1.263672,-3.017578 C 17.706092,10.090712 17.93952,9.4349069 17.94332,7.784179 17.94532,6.9090332 17.89415,6.5157005 17.712852,5.9833978 17.018116,3.943526 15.289991,2.5452615 12.974616,2.1513665 12.512476,2.0727455 12.242071,2.0332875 11.972663,2.034179 Z"
       sodipodi:nodetypes="sssssscccssssssscccccscsss"
       inkscape:label="light-mode" /><path
       d="m 9.1915117,16.565429 0.189498,1.25447 5.2107653,0.794836 0.105276,-1.128137 z m 0.7319933,3.955181 0.568788,0.898335 c 0.324047,0.226996 0.654649,0.441213 0.736329,0.476563 0.08168,0.03534 0.485817,0.05091 0.896484,0.03516 0.684611,-0.02625 0.79838,-0.06547 1.376953,-0.476563 l 0.630859,-0.449219 c 0,0 -4.166076,-0.452543 -4.209413,-0.484276 z m -0.4886333,-1.997772 0.189497,1.212359 4.7264953,0.479007 0.231606,-1.022861 z"
       style="fill:#000000;stroke:none;stroke-opacity:1"
       id="path1-7"
       sodipodi:nodetypes="ccccccccccccccccc"
       inkscape:label="base" /></g><path
     id="path2-3"
     style="display:none;fill:#000000;stroke-width:1"
     d="M 12.035559,2.0460321 C 11.508643,2.0386208 10.997115,2.2079017 10.61915,2.5550911 10.331948,2.8188967 9.7094793,3.2540286 9.2357353,3.5237167 7.4719943,4.5277493 6.7058351,5.9102238 6.4571211,8.5412469 6.2350006,10.890953 5.7628726,12.51349 4.8851663,13.942929 c -1.1604904,1.890018 -1.2087338,2.018413 -0.9921941,2.639565 0.1073298,0.307888 0.3792093,0.648233 0.6033291,0.756518 0.2643692,0.127724 2.9215756,0.201546 7.5675387,0.209751 6.973823,0.01222 7.174178,0.0019 7.650025,-0.372367 0.727279,-0.572073 0.65696,-1.385291 -0.245103,-2.78097 C 18.42354,12.778261 17.970078,11.43451 17.750688,9.3071925 17.645493,8.2872067 17.484811,7.1490817 17.394818,6.7760385 17.208778,6.0051057 16.614297,5.0710955 15.910064,4.3697917 15.851576,4.2932268 15.786083,4.224422 15.707383,4.1741815 c -0.0058,-0.00369 -0.01496,-0.0058 -0.02121,-0.00943 C 15.49466,3.9931369 15.301326,3.8334804 15.104053,3.7075439 14.594059,3.3819693 13.890719,2.8815754 13.541525,2.5951557 13.104268,2.2365019 12.562475,2.0534434 12.035559,2.0460321 Z m 0.0047,2.9530126 c 0.178583,0 0.358015,0.094092 0.490205,0.2828118 0.113546,0.1621145 0.571571,0.4855315 1.018118,0.7188099 1.259014,0.6577121 1.649329,1.4064677 1.890118,3.6294013 0.215049,1.9853343 0.660761,3.3720873 1.482397,4.6145263 0.285496,0.431713 0.518487,0.817705 0.518487,0.860214 0,0.04251 -2.430309,0.07777 -5.399325,0.07777 -2.9690277,0 -5.3969674,-0.03526 -5.3969674,-0.07777 0,-0.0425 0.2329912,-0.428501 0.5184866,-0.860214 C 7.983428,13.002155 8.4291386,11.615402 8.6441893,9.6300677 8.8849783,7.4071341 9.2752933,6.6583785 10.534307,6.0006664 10.980854,5.767388 11.438878,5.443971 11.552425,5.2818565 11.684613,5.0931363 11.86169,4.9990447 12.040272,4.9990447 Z M 9.7707113,19.04766 c -0.76017,-0.0043 -0.835978,0.157203 -0.497275,1.051111 0.261099,0.689139 0.8779137,1.343512 1.5648847,1.661513 0.739067,0.342123 2.215914,0.213722 2.830462,-0.245103 0.687029,-0.512935 1.133292,-1.169748 1.27029,-1.868906 0.116937,-0.597016 0.110916,-0.602597 -0.600972,-0.598615 -0.626874,0.0035 -0.754252,0.08141 -0.996908,0.603329 -0.161396,0.347141 -0.47982,0.714396 -0.787155,0.773015 -1.833464,0.349684 -1.375414,-1.36838 -2.7833267,-1.376344 z"
     inkscape:label="notification" /></svg>
